<svg shape-rendering="geometricPrecision" width="163" height="30" fill="none" xmlns="http://www.w3.org/2000/svg"><path d="M117.176 10.99a6.365 6.365 0 0 1 2.608 2.513 7.598 7.598 0 0 1 .951 3.87 7.52 7.52 0 0 1-.951 3.855 6.47 6.47 0 0 1-2.608 2.513 8.344 8.344 0 0 1-7.475 0 6.47 6.47 0 0 1-2.608-2.513 7.52 7.52 0 0 1-.951-3.855 7.601 7.601 0 0 1 .951-3.868 6.364 6.364 0 0 1 2.608-2.513 8.475 8.475 0 0 1 7.475 0v-.002Zm-6.303 3.306c-.703.705-1.053 1.73-1.052 3.075.001 1.345.352 2.37 1.052 3.077a3.63 3.63 0 0 0 2.57 1.058 3.657 3.657 0 0 0 2.57-1.058c.703-.705 1.053-1.731 1.052-3.077-.002-1.346-.352-2.371-1.052-3.075a3.64 3.64 0 0 0-2.57-1.058 3.655 3.655 0 0 0-2.57 1.058ZM141.825 20.69v3.754h-3.912V20.69h3.912ZM147.091 10.3v14.143h-3.622V10.301h3.622ZM103.066 11.858h.02a4.085 4.085 0 0 0-.73-.659 5.3 5.3 0 0 0-2.765-1.034 6.361 6.361 0 0 0-.552-.043c-.067 0-.126-.018-.193-.018-.068 0-.096 0-.146.011-1.48 0-3.353.432-5.67 1.693a4.297 4.297 0 0 0-.898-.766c-.054-.037-.102-.085-.158-.12a5.292 5.292 0 0 0-2.609-.794h-.071c-.102 0-.2-.02-.307-.02-.058 0-.113 0-.171.012-1.207 0-2.678.278-4.454 1.103v-.909h-3.627v14.143h3.621v-7.515c0-1.208.3-2.127.9-2.756.6-.63 1.404-.944 2.414-.944.977 0 1.743.293 2.3.88.556.585.834 1.424.834 2.515v7.81h3.597v-7.505c0-1.208.3-2.127.9-2.756.6-.63 1.405-.944 2.415-.944.978 0 1.744.293 2.299.88.555.585.833 1.424.834 2.515v7.81h3.597v-8.223c0-1.874-.469-3.312-1.38-4.366ZM135.053 11.86l.024-.01a3.972 3.972 0 0 0-.721-.664 5.045 5.045 0 0 0-2.826-1.045 8.59 8.59 0 0 0-.317-.028c-.069 0-.13-.017-.202-.017-.072 0-.115.01-.176.01-1.256 0-2.806.307-4.679 1.212v-1.017h-3.623v14.143h3.623V16.94c0-1.24.308-2.193.923-2.857a3.196 3.196 0 0 1 2.467-.997c1.014 0 1.811.31 2.391.933.582.622.869 1.492.869 2.617v7.81h3.597v-8.223c.002-1.857-.456-3.304-1.35-4.364ZM50.483 11.86l.026-.01a3.962 3.962 0 0 0-.737-.674 5.044 5.044 0 0 0-2.804-1.035 7.98 7.98 0 0 0-.326-.028c-.07 0-.13-.017-.202-.017-.072 0-.115.01-.176.01-1.254 0-2.806.31-4.68 1.214V5.552h-3.622v18.892h3.623v-7.502c0-1.242.308-2.194.923-2.858a3.194 3.194 0 0 1 2.46-1.002c1.015 0 1.812.311 2.391.933.583.622.87 1.493.87 2.618v7.81h3.597v-8.219c.008-1.857-.45-3.301-1.343-4.364ZM64.73 10.301v1.145c-4.913-2.469-7.678-.925-8.693-.06a6.023 6.023 0 0 0-1.693 2.118 9.664 9.664 0 0 0 0 7.735 5.889 5.889 0 0 0 2.25 2.516c.977.581 2.097.88 3.236.864a5.442 5.442 0 0 0 3.084-.864 4.64 4.64 0 0 0 1.817-2.278v2.962h3.597V10.301H64.73Zm-1.07 10.044a3.584 3.584 0 0 1-2.71 1.112c-1.13 0-2.039-.36-2.724-1.08-.685-.72-1.026-1.72-1.024-3.003 0-1.277.343-2.281 1.028-3.013.686-.731 1.593-1.095 2.724-1.09a3.61 3.61 0 0 1 2.705 1.1c.712.74 1.068 1.74 1.068 3s-.356 2.251-1.068 2.974ZM147.233 4.354v3.75h-3.912v-3.75h3.912ZM79.5 10.115v3.838h-1.049c-2.65 0-3.976 1.224-3.98 3.671v6.813h-3.627V10.305h3.628v1.022c1.845-.898 3.375-1.214 4.623-1.214h.271c.045.005.09.006.135.002ZM158.647 20.32a2.67 2.67 0 0 1-.726.805 3.456 3.456 0 0 1-2.095.613 3.32 3.32 0 0 1-2.364-.894c-.634-.596-.976-1.523-1.026-2.782h10.432a6.952 6.952 0 0 0-.733-4.684 6.134 6.134 0 0 0-2.44-2.388 7.539 7.539 0 0 0-3.695-.864 7.698 7.698 0 0 0-3.695.864 6.11 6.11 0 0 0-2.519 2.514 7.954 7.954 0 0 0-.897 3.87 7.862 7.862 0 0 0 .9 3.854 6.196 6.196 0 0 0 2.519 2.514 8.156 8.156 0 0 0 6.922.216 6.33 6.33 0 0 0 2.377-1.833c.425-.541.755-1.15.974-1.802l-3.934-.004Zm-5.107-6.48c.677-.599 1.56-.918 2.466-.893a3.49 3.49 0 0 1 2.428.894c.533.508.851 1.2.889 1.932h-6.796a3.321 3.321 0 0 1 1.013-1.924v-.008Z" fill="#003E56"/><path d="m24.196 17.263-1.304 1.296-4.707 4.677-1.304 1.296-2.274 2.26-.895.888c-.145.144-.29.276-.435.396a6.26 6.26 0 0 1-8.348-.396l-3.094-3.075a6.149 6.149 0 0 1 0-8.74l.884-.878 2.26 2.276-.893.887a2.964 2.964 0 0 0 0 4.2l3.095 3.076c.054.054.11.106.167.155l.044.037.089.07.046.034c.22.159.459.288.712.384l.066.022.089.03.052.017a3.06 3.06 0 0 0 1.706 0l.052-.017.102-.035.052-.017a3.116 3.116 0 0 0 .711-.384 2.942 2.942 0 0 0 .348-.296l10.495-10.428 2.284 2.265Z" fill="#FFC933"/><path d="m13.28 20.975 1.303 1.296-2.284 2.27-1.304-1.296-4.699-4.675-1.304-1.296-2.29-2.276-.885-.888a9.119 9.119 0 0 1-.402-.432 6.155 6.155 0 0 1 .402-8.29l3.095-3.073a6.23 6.23 0 0 1 8.343-.402c.152.127.297.261.435.402l.896.877-2.285 2.27-.884-.888a3.879 3.879 0 0 0-.172-.156l-.054-.045-.061-.045-.059-.046-.05-.034-.072-.05a3.016 3.016 0 0 0-3.768.376L4.093 7.655a2.98 2.98 0 0 0 0 4.209l.893.88 2.275 2.254 1.304 1.296 4.714 4.681Z" fill="#E76A4B"/><path d="M27.765 13.678a5.415 5.415 0 0 1-.4.432l-.893.888-2.276-2.27.884-.879a2.967 2.967 0 0 0 .882-2.104 2.95 2.95 0 0 0-.881-2.105l-3.095-3.075A3.04 3.04 0 0 0 18.22 4.2a3 3 0 0 0-.461.374l-.894.887-2.273 2.261-1.304 1.296-4.716 4.684-1.304 1.296-2.289-2.265 1.304-1.296 4.7-4.669 1.303-1.296 2.284-2.27.883-.876.058-.056.116-.11.058-.054.12-.104.098-.082.082-.067.124-.095c.268-.2.551-.379.848-.533l.136-.07.137-.064.105-.046.104-.045.141-.056.142-.054.14-.048.144-.047c.096-.028.194-.056.29-.08l.145-.037.146-.03.073-.015a6.402 6.402 0 0 1 2.082-.05c.098.015.198.03.296.05l.074.015.146.03.145.037c.098.024.194.052.29.08l.143.047.143.048.141.054.142.056.217.09.137.065.135.07c.296.154.58.332.847.533l.124.095c.072.056.141.114.217.173l.092.08.059.054.115.11c.02.017.038.036.056.056l3.104 3.058a6.157 6.157 0 0 1 .4 8.295Z" fill="#496FFF"/><path d="M29.18 20.256a6.127 6.127 0 0 1-1.815 4.365l-3.095 3.075a6.264 6.264 0 0 1-8.796 0l-.882-.888 2.273-2.26.894.878c.055.055.111.107.17.156l.043.036c.028.024.056.048.086.07l.046.034.12.084c.184.121.382.222.589.3l.05.018.104.034.052.018c.556.16 1.146.16 1.702 0l.07-.022.136-.047c.254-.097.494-.226.713-.385l.065-.05.048-.038.063-.052c.06-.05.116-.102.17-.156l3.095-3.075a2.948 2.948 0 0 0 0-4.2l-.885-.888-2.284-2.265-1.304-1.296-4.699-4.675-1.304-1.296 2.273-2.26 1.304 1.295 4.706 4.67 1.304 1.297 2.28 2.265.893.879c.141.142.276.29.402.432a6.133 6.133 0 0 1 1.413 3.947Z" fill="#99CF2D"/><g opacity=".2" fill="#003E56"><path opacity=".2" d="m24.196 17.263-1.31 1.305-.003-.003-2.28-2.256-.002-.002 1.31-1.303 2.285 2.26ZM14.592 22.278l-2.284 2.27-1.313-1.305 2.284-2.267 1.313 1.302ZM8.572 13.7l-1.313 1.305-2.273-2.27 1.31-1.304.003.002L8.572 13.7ZM18.178 6.762l-2.275 2.26-1.311-1.304 2.273-2.259 1.313 1.303Z"/></g></svg>