<svg viewBox="0 0 48 48" fill="none" xmlns="http://www.w3.org/2000/svg"><path fill="#fff" d="M0 0h48v48H0z"/><path d="m39.8 27.745-2.146 2.145-7.743 7.743-2.145 2.145-3.739 3.743-1.473 1.47a10.5 10.5 0 0 1-.715.654 10.252 10.252 0 0 1-13.73-.654L3.017 39.9a10.22 10.22 0 0 1 0-14.468l1.455-1.455 3.718 3.768-1.47 1.47a4.923 4.923 0 0 0 0 6.953l5.09 5.09c.09.09.183.176.276.258l.072.06.146.115.075.057c.361.263.755.477 1.173.637l.107.035.147.05.085.029c.917.268 1.89.268 2.807 0l.085-.029.169-.057.085-.028a5.13 5.13 0 0 0 1.17-.637c.064-.05.196-.15.292-.232a4.85 4.85 0 0 0 .28-.258l17.262-17.263 3.757 3.75Z" fill="#FFC933"/><path d="m21.843 33.891 2.145 2.145-3.758 3.758-2.145-2.145-7.728-7.74-2.145-2.145-3.768-3.768-1.455-1.47a14.964 14.964 0 0 1-.661-.715 10.232 10.232 0 0 1 .661-13.724L8.079 3a10.206 10.206 0 0 1 13.724-.665c.25.21.488.431.715.665l1.473 1.451-3.757 3.758-1.455-1.47a6.26 6.26 0 0 0-.282-.257l-.09-.075-.1-.075-.096-.075-.083-.058-.118-.082a4.937 4.937 0 0 0-6.198.622l-5.08 5.102a4.959 4.959 0 0 0-.626 6.199c.182.277.392.534.626.768l1.47 1.456 3.742 3.732 2.145 2.145 7.754 7.75Z" fill="#E76A4B"/><path d="M45.669 21.812c-.207.25-.426.49-.658.715l-1.47 1.469-3.742-3.758 1.455-1.454a4.91 4.91 0 0 0 0-6.968l-5.09-5.09a4.976 4.976 0 0 0-6.196-.605 4.94 4.94 0 0 0-.758.618l-1.469 1.47-3.74 3.743-2.144 2.145-7.758 7.754-2.145 2.145-3.764-3.75 2.145-2.145 7.729-7.73 2.145-2.144 3.757-3.758 1.451-1.451.097-.093.19-.182.096-.09.197-.171.16-.136.136-.111.204-.157c.44-.332.907-.627 1.394-.883l.225-.115.226-.107.171-.075.172-.075.232-.093.232-.09.233-.078.236-.079c.157-.046.318-.093.475-.132l.24-.06.24-.051.12-.025a10.464 10.464 0 0 1 3.425-.082c.161.025.326.05.487.082l.121.025.24.05.24.06c.16.04.317.087.475.133l.236.079.236.078.232.09.232.093.358.15.225.107.222.115c.488.255.954.55 1.394.883l.204.157c.118.093.232.19.357.286l.15.132.097.09.19.182c.032.029.063.06.092.093l5.105 5.062a10.235 10.235 0 0 1 .658 13.732Z" fill="#496FFF"/><path d="M47.996 32.702a10.2 10.2 0 0 1-2.985 7.225l-5.09 5.09a10.26 10.26 0 0 1-13.735.659 10.49 10.49 0 0 1-.733-.658l-1.451-1.47 3.74-3.742 1.468 1.455c.091.09.184.176.28.257l.07.06c.047.04.094.08.144.115l.075.057.196.14c.304.2.629.367.97.497l.081.028.172.057.086.03a5.006 5.006 0 0 0 2.799 0l.114-.037.225-.078c.418-.16.812-.374 1.173-.637l.107-.082.079-.064.104-.086c.097-.083.19-.17.279-.257l5.09-5.091a4.904 4.904 0 0 0 0-6.954l-1.455-1.469-3.757-3.75-2.145-2.145-7.729-7.74-2.145-2.145 3.74-3.743 2.144 2.145 7.74 7.733 2.145 2.145 3.75 3.75 1.47 1.455c.231.236.453.479.66.715a10.192 10.192 0 0 1 2.324 6.535Z" fill="#99CF2D"/><g opacity=".2" fill="#003E56"><path opacity=".2" d="m39.8 27.745-2.156 2.16-.004-.004-3.75-3.736-.004-.003 2.156-2.156 3.757 3.74ZM24.002 36.047l-3.757 3.758-2.16-2.16 3.758-3.753 2.16 2.155ZM14.1 21.848l-2.16 2.159-3.739-3.758 2.156-2.159.003.004 3.74 3.753ZM29.9 10.36l-3.742 3.743-2.156-2.159 3.74-3.74L29.9 10.36Z"/></g></svg>