<?xml version="1.0" standalone="no"?>
<!DOCTYPE svg PUBLIC "-//W3C//DTD SVG 20010904//EN"
 "http://www.w3.org/TR/2001/REC-SVG-20010904/DTD/svg10.dtd">
<svg version="1.0" xmlns="http://www.w3.org/2000/svg"
 width="700.000000pt" height="700.000000pt" viewBox="0 0 700.000000 700.000000"
 preserveAspectRatio="xMidYMid meet">
<metadata>
Created by potrace 1.14, written by Peter Selinger 2001-2017
</metadata>
<g transform="translate(0.000000,700.000000) scale(0.100000,-0.100000)"
fill="#000000" stroke="none">
<path d="M2090 6995 c-8 -2 -49 -9 -90 -15 -105 -17 -106 -18 -169 -35 -203
-58 -376 -149 -551 -291 -118 -96 -941 -933 -1002 -1019 -105 -149 -212 -388
-242 -540 -3 -16 -8 -43 -11 -60 -3 -16 -8 -41 -11 -55 -3 -14 -7 -95 -8 -181
-6 -257 38 -463 143 -679 98 -199 143 -257 377 -495 l122 -124 -144 -145
c-181 -185 -258 -288 -339 -451 -117 -236 -160 -420 -159 -675 1 -304 81 -567
250 -822 80 -120 95 -137 559 -601 414 -415 489 -484 600 -557 462 -301 1046
-325 1535 -63 148 79 228 143 427 340 l123 122 132 -133 c191 -192 288 -266
468 -357 119 -60 294 -119 394 -134 17 -3 58 -9 91 -14 63 -9 353 -7 395 3 24
6 43 10 106 20 95 17 263 79 386 144 164 85 261 169 691 599 224 224 424 425
445 447 184 201 307 445 363 722 23 114 32 367 17 482 -36 270 -153 541 -321
747 -23 27 -103 112 -179 189 l-138 138 133 133 c203 201 272 292 362 473 98
198 145 391 150 617 7 268 -41 486 -158 719 -39 79 -121 205 -173 268 -50 60
-878 882 -944 937 -479 399 -1175 459 -1706 146 -126 -75 -219 -150 -373 -301
l-144 -142 -151 148 c-83 82 -169 163 -191 181 -177 140 -429 254 -650 293
-16 3 -41 8 -55 12 -26 6 -334 13 -360 9z m315 -790 c33 -8 103 -36 155 -62
86 -43 109 -62 243 -193 l148 -145 -875 -875 c-482 -481 -881 -874 -886 -872
-28 7 -273 268 -309 330 -44 73 -85 178 -97 245 -33 193 17 408 129 556 59 78
797 824 877 885 58 46 149 95 214 116 121 39 283 45 401 15z m2530 -1 c105
-24 219 -83 305 -157 41 -36 248 -240 460 -453 395 -399 424 -433 476 -562 69
-171 67 -361 -5 -540 -37 -93 -90 -163 -230 -306 l-137 -138 -878 876 c-875
873 -878 877 -860 897 52 58 244 242 279 268 164 120 383 163 590 115z m-1115
-638 c0 -2 -8 -10 -17 -17 -16 -13 -17 -12 -4 4 13 16 21 21 21 13z m-179
-179 c-10 -9 -11 -8 -5 6 3 10 9 15 12 12 3 -3 0 -11 -7 -18z m735 -1007 c478
-478 870 -873 871 -877 4 -10 -1744 -1759 -1751 -1753 -3 3 -399 397 -879 877
l-873 872 876 876 c481 481 878 875 881 875 4 0 398 -391 875 -870z m-2301
-2307 l875 -878 -137 -136 c-147 -144 -208 -190 -315 -232 -228 -92 -504 -57
-693 86 -60 45 -830 814 -881 879 -182 234 -202 550 -50 808 30 53 84 116 180
213 75 75 138 137 140 137 3 0 399 -395 881 -877z m3861 747 c71 -72 148 -158
170 -193 168 -254 157 -591 -27 -828 -23 -30 -230 -241 -459 -469 -426 -425
-459 -454 -587 -505 -113 -46 -281 -63 -402 -40 -128 23 -259 95 -375 205 -93
89 -206 201 -206 206 0 5 1744 1752 1751 1753 3 1 63 -58 135 -129z"/>
</g>
</svg>
