<svg viewBox="0 0 96 96" fill="none" xmlns="http://www.w3.org/2000/svg">
<path d="M50 68.116C50 72.9207 51.9086 77.5285 55.3061 80.9259C58.7035 84.3234 63.3113 86.232 68.116 86.232C72.9207 86.232 77.5285 84.3234 80.9259 80.9259C84.3234 77.5285 86.232 72.9207 86.232 68.116C86.232 63.3113 84.3234 58.7035 80.9259 55.3061C77.5285 51.9086 72.9207 50 68.116 50C63.3113 50 58.7035 51.9086 55.3061 55.3061C51.9086 58.7035 50 63.3113 50 68.116V68.116Z" stroke="currentColor" stroke-width="4" stroke-linecap="round" stroke-linejoin="round"/>
<path d="M94.0001 93.9998L81.0081 81.0078" stroke="currentColor" stroke-width="4" stroke-linecap="round" stroke-linejoin="round"/>
<path d="M74.992 74.992L62 62" stroke="currentColor" stroke-width="4" stroke-linecap="round" stroke-linejoin="round"/>
<path d="M62 75L74.992 62" stroke="currentColor" stroke-width="4" stroke-linecap="round" stroke-linejoin="round"/>
<path d="M46 94H6C4.93913 94 3.92172 93.5786 3.17157 92.8284C2.42143 92.0783 2 91.0609 2 90V6C2 4.93913 2.42143 3.92172 3.17157 3.17157C3.92172 2.42143 4.93913 2 6 2H59.172C60.2328 2.00023 61.25 2.4218 62 3.172L76.828 18C77.5782 18.75 77.9998 19.7672 78 20.828V38" stroke="currentColor" stroke-width="4" stroke-linecap="round" stroke-linejoin="round"/>
</svg>
